<mxfile host="app.diagrams.net" modified="2023-11-03T06:51:39.776Z" agent="Mozilla/5.0 (X11; Linux x86_64) AppleWebKit/537.36 (KHTML, like Gecko) Chrome/115.0.0.0 Safari/537.36" etag="MmutQ8e8sitGv0PmmE1-" version="22.0.8" type="google">
  <diagram name="Page-1" id="tu3L6ESJfjVAwitMhg03">
    <mxGraphModel grid="1" page="1" gridSize="10" guides="1" tooltips="1" connect="1" arrows="1" fold="1" pageScale="1" pageWidth="850" pageHeight="1100" math="0" shadow="0">
      <root>
        <mxCell id="0" />
        <mxCell id="1" parent="0" />
        <mxCell id="mqDDfRBbFSN-000igJr9-121" value="" style="ellipse;whiteSpace=wrap;html=1;aspect=fixed;" vertex="1" parent="1">
          <mxGeometry x="275" y="955" width="90" height="90" as="geometry" />
        </mxCell>
        <mxCell id="mqDDfRBbFSN-000igJr9-116" value="" style="ellipse;whiteSpace=wrap;html=1;aspect=fixed;" vertex="1" parent="1">
          <mxGeometry x="275" y="795" width="90" height="90" as="geometry" />
        </mxCell>
        <mxCell id="mqDDfRBbFSN-000igJr9-105" value="" style="ellipse;whiteSpace=wrap;html=1;aspect=fixed;" vertex="1" parent="1">
          <mxGeometry x="710" y="535" width="90" height="90" as="geometry" />
        </mxCell>
        <mxCell id="mqDDfRBbFSN-000igJr9-84" value="" style="ellipse;whiteSpace=wrap;html=1;aspect=fixed;" vertex="1" parent="1">
          <mxGeometry x="995" y="35" width="90" height="90" as="geometry" />
        </mxCell>
        <mxCell id="mqDDfRBbFSN-000igJr9-83" value="" style="ellipse;whiteSpace=wrap;html=1;aspect=fixed;" vertex="1" parent="1">
          <mxGeometry x="715" y="335" width="90" height="90" as="geometry" />
        </mxCell>
        <mxCell id="mqDDfRBbFSN-000igJr9-48" style="edgeStyle=orthogonalEdgeStyle;rounded=0;orthogonalLoop=1;jettySize=auto;html=1;fillColor=#e1d5e7;strokeColor=#9673a6;" edge="1" parent="1" source="EbS9nWY_aXkNQyXlSpU5-1" target="mqDDfRBbFSN-000igJr9-47">
          <mxGeometry relative="1" as="geometry">
            <Array as="points">
              <mxPoint x="220" y="380" />
              <mxPoint x="220" y="380" />
            </Array>
          </mxGeometry>
        </mxCell>
        <mxCell id="mqDDfRBbFSN-000igJr9-49" value="[a-b) , (b - s ) , (s - z ]&lt;br&gt;&amp;nbsp;, [ A - Z] , underline" style="edgeLabel;html=1;align=center;verticalAlign=middle;resizable=0;points=[];" connectable="0" vertex="1" parent="mqDDfRBbFSN-000igJr9-48">
          <mxGeometry x="0.0667" y="2" relative="1" as="geometry">
            <mxPoint as="offset" />
          </mxGeometry>
        </mxCell>
        <mxCell id="EbS9nWY_aXkNQyXlSpU5-1" value="Start&lt;br&gt;&lt;br&gt;q&lt;sub&gt;0&lt;/sub&gt;" style="ellipse;whiteSpace=wrap;html=1;aspect=fixed;fillColor=#e1d5e7;strokeColor=#9673a6;" vertex="1" parent="1">
          <mxGeometry x="80" y="340" width="80" height="80" as="geometry" />
        </mxCell>
        <mxCell id="EbS9nWY_aXkNQyXlSpU5-2" value="" style="shape=flexArrow;endArrow=classic;html=1;rounded=0;" edge="1" parent="1">
          <mxGeometry width="50" height="50" relative="1" as="geometry">
            <mxPoint x="20" y="380" as="sourcePoint" />
            <mxPoint x="80" y="380.5" as="targetPoint" />
          </mxGeometry>
        </mxCell>
        <mxCell id="mqDDfRBbFSN-000igJr9-10" style="edgeStyle=orthogonalEdgeStyle;rounded=0;orthogonalLoop=1;jettySize=auto;html=1;entryX=0;entryY=0.5;entryDx=0;entryDy=0;fillColor=#dae8fc;strokeColor=#6c8ebf;" edge="1" parent="1" source="mqDDfRBbFSN-000igJr9-1" target="mqDDfRBbFSN-000igJr9-7">
          <mxGeometry relative="1" as="geometry" />
        </mxCell>
        <mxCell id="mqDDfRBbFSN-000igJr9-11" value="&lt;font style=&quot;font-size: 15px;&quot;&gt;r&lt;/font&gt;" style="edgeLabel;html=1;align=center;verticalAlign=middle;resizable=0;points=[];" connectable="0" vertex="1" parent="mqDDfRBbFSN-000igJr9-10">
          <mxGeometry x="0.1" y="-3" relative="1" as="geometry">
            <mxPoint y="-5" as="offset" />
          </mxGeometry>
        </mxCell>
        <mxCell id="mqDDfRBbFSN-000igJr9-1" value="q&lt;sub&gt;1&lt;/sub&gt;" style="ellipse;whiteSpace=wrap;html=1;aspect=fixed;fillColor=#dae8fc;strokeColor=#6c8ebf;" vertex="1" parent="1">
          <mxGeometry x="280" y="-40" width="80" height="80" as="geometry" />
        </mxCell>
        <mxCell id="mqDDfRBbFSN-000igJr9-3" value="" style="endArrow=classic;html=1;rounded=0;exitX=0.5;exitY=0;exitDx=0;exitDy=0;entryX=0;entryY=0.5;entryDx=0;entryDy=0;fillColor=#dae8fc;strokeColor=#6c8ebf;" edge="1" parent="1" source="EbS9nWY_aXkNQyXlSpU5-1" target="mqDDfRBbFSN-000igJr9-1">
          <mxGeometry width="50" height="50" relative="1" as="geometry">
            <mxPoint x="120" y="240" as="sourcePoint" />
            <mxPoint x="170" y="190" as="targetPoint" />
            <Array as="points">
              <mxPoint x="160" />
            </Array>
          </mxGeometry>
        </mxCell>
        <mxCell id="mqDDfRBbFSN-000igJr9-6" value="b" style="edgeLabel;html=1;align=center;verticalAlign=middle;resizable=0;points=[];" connectable="0" vertex="1" parent="mqDDfRBbFSN-000igJr9-3">
          <mxGeometry x="-0.1262" y="1" relative="1" as="geometry">
            <mxPoint as="offset" />
          </mxGeometry>
        </mxCell>
        <mxCell id="mqDDfRBbFSN-000igJr9-13" style="edgeStyle=orthogonalEdgeStyle;rounded=0;orthogonalLoop=1;jettySize=auto;html=1;entryX=0;entryY=0.5;entryDx=0;entryDy=0;fillColor=#dae8fc;strokeColor=#6c8ebf;" edge="1" parent="1" source="mqDDfRBbFSN-000igJr9-7" target="mqDDfRBbFSN-000igJr9-12">
          <mxGeometry relative="1" as="geometry" />
        </mxCell>
        <mxCell id="mqDDfRBbFSN-000igJr9-14" value="&lt;font style=&quot;font-size: 15px;&quot;&gt;e&lt;/font&gt;" style="edgeLabel;html=1;align=center;verticalAlign=middle;resizable=0;points=[];" connectable="0" vertex="1" parent="mqDDfRBbFSN-000igJr9-13">
          <mxGeometry x="0.1" relative="1" as="geometry">
            <mxPoint y="-2" as="offset" />
          </mxGeometry>
        </mxCell>
        <mxCell id="mqDDfRBbFSN-000igJr9-7" value="q&lt;sub&gt;2&lt;/sub&gt;" style="ellipse;whiteSpace=wrap;html=1;aspect=fixed;fillColor=#dae8fc;strokeColor=#6c8ebf;" vertex="1" parent="1">
          <mxGeometry x="400" y="-40" width="80" height="80" as="geometry" />
        </mxCell>
        <mxCell id="mqDDfRBbFSN-000igJr9-16" style="edgeStyle=orthogonalEdgeStyle;rounded=0;orthogonalLoop=1;jettySize=auto;html=1;exitX=1;exitY=0.5;exitDx=0;exitDy=0;entryX=0;entryY=0.5;entryDx=0;entryDy=0;fillColor=#dae8fc;strokeColor=#6c8ebf;" edge="1" parent="1" source="mqDDfRBbFSN-000igJr9-12" target="mqDDfRBbFSN-000igJr9-15">
          <mxGeometry relative="1" as="geometry">
            <Array as="points">
              <mxPoint x="620" />
              <mxPoint x="620" />
            </Array>
          </mxGeometry>
        </mxCell>
        <mxCell id="mqDDfRBbFSN-000igJr9-17" value="&lt;font style=&quot;font-size: 15px;&quot;&gt;a&lt;/font&gt;" style="edgeLabel;html=1;align=center;verticalAlign=middle;resizable=0;points=[];" connectable="0" vertex="1" parent="mqDDfRBbFSN-000igJr9-16">
          <mxGeometry x="-0.05" y="-1" relative="1" as="geometry">
            <mxPoint y="-4" as="offset" />
          </mxGeometry>
        </mxCell>
        <mxCell id="mqDDfRBbFSN-000igJr9-12" value="q&lt;sub&gt;3&lt;/sub&gt;" style="ellipse;whiteSpace=wrap;html=1;aspect=fixed;fillColor=#dae8fc;strokeColor=#6c8ebf;" vertex="1" parent="1">
          <mxGeometry x="520" y="-40" width="80" height="80" as="geometry" />
        </mxCell>
        <mxCell id="mqDDfRBbFSN-000igJr9-19" style="edgeStyle=orthogonalEdgeStyle;rounded=0;orthogonalLoop=1;jettySize=auto;html=1;entryX=0;entryY=0.5;entryDx=0;entryDy=0;fillColor=#dae8fc;strokeColor=#6c8ebf;" edge="1" parent="1" source="mqDDfRBbFSN-000igJr9-15" target="mqDDfRBbFSN-000igJr9-18">
          <mxGeometry relative="1" as="geometry" />
        </mxCell>
        <mxCell id="mqDDfRBbFSN-000igJr9-20" value="&lt;font style=&quot;font-size: 15px;&quot;&gt;k&lt;/font&gt;" style="edgeLabel;html=1;align=center;verticalAlign=middle;resizable=0;points=[];" connectable="0" vertex="1" parent="mqDDfRBbFSN-000igJr9-19">
          <mxGeometry x="0.05" y="-1" relative="1" as="geometry">
            <mxPoint y="-3" as="offset" />
          </mxGeometry>
        </mxCell>
        <mxCell id="mqDDfRBbFSN-000igJr9-15" value="q&lt;sub&gt;4&lt;/sub&gt;" style="ellipse;whiteSpace=wrap;html=1;aspect=fixed;fillColor=#dae8fc;strokeColor=#6c8ebf;" vertex="1" parent="1">
          <mxGeometry x="640" y="-40" width="80" height="80" as="geometry" />
        </mxCell>
        <mxCell id="mqDDfRBbFSN-000igJr9-18" value="q&lt;sub&gt;5&lt;/sub&gt;" style="ellipse;whiteSpace=wrap;html=1;aspect=fixed;fillColor=#dae8fc;strokeColor=#6c8ebf;" vertex="1" parent="1">
          <mxGeometry x="760" y="-40" width="80" height="80" as="geometry" />
        </mxCell>
        <mxCell id="mqDDfRBbFSN-000igJr9-22" value="KW&lt;br&gt;&lt;br&gt;q&lt;sub&gt;12&lt;/sub&gt;" style="ellipse;whiteSpace=wrap;html=1;aspect=fixed;fillColor=#dae8fc;strokeColor=#6c8ebf;" vertex="1" parent="1">
          <mxGeometry x="1000" y="40" width="80" height="80" as="geometry" />
        </mxCell>
        <mxCell id="mqDDfRBbFSN-000igJr9-23" value="" style="endArrow=classic;html=1;rounded=0;entryX=0.5;entryY=0;entryDx=0;entryDy=0;fillColor=#dae8fc;strokeColor=#6c8ebf;" edge="1" parent="1" source="mqDDfRBbFSN-000igJr9-18" target="mqDDfRBbFSN-000igJr9-22">
          <mxGeometry width="50" height="50" relative="1" as="geometry">
            <mxPoint x="840" y="50" as="sourcePoint" />
            <mxPoint x="910.7106781186548" as="targetPoint" />
            <Array as="points">
              <mxPoint x="1000" />
            </Array>
          </mxGeometry>
        </mxCell>
        <mxCell id="mqDDfRBbFSN-000igJr9-24" value="special-operator" style="edgeLabel;html=1;align=center;verticalAlign=middle;resizable=0;points=[];" connectable="0" vertex="1" parent="mqDDfRBbFSN-000igJr9-23">
          <mxGeometry x="-0.1653" y="1" relative="1" as="geometry">
            <mxPoint as="offset" />
          </mxGeometry>
        </mxCell>
        <mxCell id="mqDDfRBbFSN-000igJr9-40" value="" style="edgeStyle=orthogonalEdgeStyle;rounded=0;orthogonalLoop=1;jettySize=auto;html=1;fillColor=#f8cecc;strokeColor=#b85450;" edge="1" parent="1" source="mqDDfRBbFSN-000igJr9-25" target="mqDDfRBbFSN-000igJr9-29">
          <mxGeometry relative="1" as="geometry" />
        </mxCell>
        <mxCell id="mqDDfRBbFSN-000igJr9-41" value="&lt;span style=&quot;font-size: 15px;&quot;&gt;t&lt;/span&gt;" style="edgeLabel;html=1;align=center;verticalAlign=middle;resizable=0;points=[];" connectable="0" vertex="1" parent="mqDDfRBbFSN-000igJr9-40">
          <mxGeometry x="0.1" y="2" relative="1" as="geometry">
            <mxPoint as="offset" />
          </mxGeometry>
        </mxCell>
        <mxCell id="mqDDfRBbFSN-000igJr9-25" value="q&lt;sub&gt;6&lt;/sub&gt;" style="ellipse;whiteSpace=wrap;html=1;aspect=fixed;fillColor=#f8cecc;strokeColor=#b85450;" vertex="1" parent="1">
          <mxGeometry x="280" y="120" width="80" height="80" as="geometry" />
        </mxCell>
        <mxCell id="mqDDfRBbFSN-000igJr9-26" value="&lt;font style=&quot;font-size: 15px;&quot;&gt;s&lt;/font&gt;" style="endArrow=classic;html=1;rounded=0;entryX=0;entryY=0.5;entryDx=0;entryDy=0;exitX=1;exitY=0;exitDx=0;exitDy=0;fillColor=#f8cecc;strokeColor=#b85450;" edge="1" parent="1" source="EbS9nWY_aXkNQyXlSpU5-1" target="mqDDfRBbFSN-000igJr9-25">
          <mxGeometry width="50" height="50" relative="1" as="geometry">
            <mxPoint x="190" y="240" as="sourcePoint" />
            <mxPoint x="240" y="190" as="targetPoint" />
            <Array as="points">
              <mxPoint x="200" y="160" />
            </Array>
          </mxGeometry>
        </mxCell>
        <mxCell id="mqDDfRBbFSN-000igJr9-27" style="edgeStyle=orthogonalEdgeStyle;rounded=0;orthogonalLoop=1;jettySize=auto;html=1;entryX=0;entryY=0.5;entryDx=0;entryDy=0;fillColor=#f8cecc;strokeColor=#b85450;" edge="1" parent="1" source="mqDDfRBbFSN-000igJr9-29" target="mqDDfRBbFSN-000igJr9-32">
          <mxGeometry relative="1" as="geometry" />
        </mxCell>
        <mxCell id="mqDDfRBbFSN-000igJr9-28" value="&lt;font style=&quot;font-size: 15px;&quot;&gt;r&lt;/font&gt;" style="edgeLabel;html=1;align=center;verticalAlign=middle;resizable=0;points=[];" connectable="0" vertex="1" parent="mqDDfRBbFSN-000igJr9-27">
          <mxGeometry x="0.1" y="-3" relative="1" as="geometry">
            <mxPoint y="-5" as="offset" />
          </mxGeometry>
        </mxCell>
        <mxCell id="mqDDfRBbFSN-000igJr9-73" style="edgeStyle=orthogonalEdgeStyle;rounded=0;orthogonalLoop=1;jettySize=auto;html=1;entryX=0.5;entryY=0;entryDx=0;entryDy=0;fillColor=#f8cecc;strokeColor=#b85450;" edge="1" parent="1" source="mqDDfRBbFSN-000igJr9-29" target="mqDDfRBbFSN-000igJr9-47">
          <mxGeometry relative="1" as="geometry">
            <Array as="points">
              <mxPoint x="450" y="340" />
            </Array>
          </mxGeometry>
        </mxCell>
        <mxCell id="mqDDfRBbFSN-000igJr9-29" value="q&lt;span style=&quot;font-size: 8.33333px;&quot;&gt;&lt;sub&gt;7&lt;/sub&gt;&lt;/span&gt;" style="ellipse;whiteSpace=wrap;html=1;aspect=fixed;fillColor=#f8cecc;strokeColor=#b85450;" vertex="1" parent="1">
          <mxGeometry x="410" y="120" width="80" height="80" as="geometry" />
        </mxCell>
        <mxCell id="mqDDfRBbFSN-000igJr9-30" style="edgeStyle=orthogonalEdgeStyle;rounded=0;orthogonalLoop=1;jettySize=auto;html=1;entryX=0;entryY=0.5;entryDx=0;entryDy=0;fillColor=#f8cecc;strokeColor=#b85450;" edge="1" parent="1" source="mqDDfRBbFSN-000igJr9-32" target="mqDDfRBbFSN-000igJr9-35">
          <mxGeometry relative="1" as="geometry" />
        </mxCell>
        <mxCell id="mqDDfRBbFSN-000igJr9-31" value="&lt;font style=&quot;font-size: 15px;&quot;&gt;u&lt;/font&gt;" style="edgeLabel;html=1;align=center;verticalAlign=middle;resizable=0;points=[];" connectable="0" vertex="1" parent="mqDDfRBbFSN-000igJr9-30">
          <mxGeometry x="0.1" relative="1" as="geometry">
            <mxPoint y="-2" as="offset" />
          </mxGeometry>
        </mxCell>
        <mxCell id="mqDDfRBbFSN-000igJr9-32" value="q&lt;sub&gt;8&lt;/sub&gt;" style="ellipse;whiteSpace=wrap;html=1;aspect=fixed;fillColor=#f8cecc;strokeColor=#b85450;" vertex="1" parent="1">
          <mxGeometry x="520" y="120" width="80" height="80" as="geometry" />
        </mxCell>
        <mxCell id="mqDDfRBbFSN-000igJr9-33" style="edgeStyle=orthogonalEdgeStyle;rounded=0;orthogonalLoop=1;jettySize=auto;html=1;exitX=1;exitY=0.5;exitDx=0;exitDy=0;entryX=0;entryY=0.5;entryDx=0;entryDy=0;fillColor=#f8cecc;strokeColor=#b85450;" edge="1" parent="1" source="mqDDfRBbFSN-000igJr9-35" target="mqDDfRBbFSN-000igJr9-38">
          <mxGeometry relative="1" as="geometry">
            <Array as="points">
              <mxPoint x="740" y="160" />
              <mxPoint x="740" y="160" />
            </Array>
          </mxGeometry>
        </mxCell>
        <mxCell id="mqDDfRBbFSN-000igJr9-34" value="&lt;font style=&quot;font-size: 15px;&quot;&gt;c&lt;/font&gt;" style="edgeLabel;html=1;align=center;verticalAlign=middle;resizable=0;points=[];" connectable="0" vertex="1" parent="mqDDfRBbFSN-000igJr9-33">
          <mxGeometry x="-0.05" y="-1" relative="1" as="geometry">
            <mxPoint y="-4" as="offset" />
          </mxGeometry>
        </mxCell>
        <mxCell id="mqDDfRBbFSN-000igJr9-35" value="q&lt;sub&gt;9&lt;/sub&gt;" style="ellipse;whiteSpace=wrap;html=1;aspect=fixed;fillColor=#f8cecc;strokeColor=#b85450;" vertex="1" parent="1">
          <mxGeometry x="640" y="120" width="80" height="80" as="geometry" />
        </mxCell>
        <mxCell id="mqDDfRBbFSN-000igJr9-36" style="edgeStyle=orthogonalEdgeStyle;rounded=0;orthogonalLoop=1;jettySize=auto;html=1;entryX=0;entryY=0.5;entryDx=0;entryDy=0;fillColor=#f8cecc;strokeColor=#b85450;" edge="1" parent="1" source="mqDDfRBbFSN-000igJr9-38" target="mqDDfRBbFSN-000igJr9-39">
          <mxGeometry relative="1" as="geometry" />
        </mxCell>
        <mxCell id="mqDDfRBbFSN-000igJr9-37" value="&lt;font style=&quot;font-size: 15px;&quot;&gt;t&lt;/font&gt;" style="edgeLabel;html=1;align=center;verticalAlign=middle;resizable=0;points=[];" connectable="0" vertex="1" parent="mqDDfRBbFSN-000igJr9-36">
          <mxGeometry x="0.05" y="-1" relative="1" as="geometry">
            <mxPoint y="-3" as="offset" />
          </mxGeometry>
        </mxCell>
        <mxCell id="mqDDfRBbFSN-000igJr9-38" value="q&lt;sub&gt;10&lt;/sub&gt;" style="ellipse;whiteSpace=wrap;html=1;aspect=fixed;fillColor=#f8cecc;strokeColor=#b85450;" vertex="1" parent="1">
          <mxGeometry x="760" y="120" width="80" height="80" as="geometry" />
        </mxCell>
        <mxCell id="mqDDfRBbFSN-000igJr9-39" value="q&lt;sub&gt;11&lt;/sub&gt;" style="ellipse;whiteSpace=wrap;html=1;aspect=fixed;fillColor=#f8cecc;strokeColor=#b85450;" vertex="1" parent="1">
          <mxGeometry x="880" y="120" width="80" height="80" as="geometry" />
        </mxCell>
        <mxCell id="mqDDfRBbFSN-000igJr9-44" value="" style="endArrow=classic;html=1;rounded=0;exitX=1;exitY=0.5;exitDx=0;exitDy=0;entryX=0.5;entryY=1;entryDx=0;entryDy=0;fillColor=#f8cecc;strokeColor=#b85450;" edge="1" parent="1" source="mqDDfRBbFSN-000igJr9-39" target="mqDDfRBbFSN-000igJr9-22">
          <mxGeometry width="50" height="50" relative="1" as="geometry">
            <mxPoint x="1020" y="200" as="sourcePoint" />
            <mxPoint x="1070" y="150" as="targetPoint" />
            <Array as="points">
              <mxPoint x="1030" y="160" />
            </Array>
          </mxGeometry>
        </mxCell>
        <mxCell id="mqDDfRBbFSN-000igJr9-45" value="special-character" style="edgeLabel;html=1;align=center;verticalAlign=middle;resizable=0;points=[];" connectable="0" vertex="1" parent="mqDDfRBbFSN-000igJr9-44">
          <mxGeometry x="-0.1369" relative="1" as="geometry">
            <mxPoint as="offset" />
          </mxGeometry>
        </mxCell>
        <mxCell id="mqDDfRBbFSN-000igJr9-57" style="edgeStyle=orthogonalEdgeStyle;rounded=0;orthogonalLoop=1;jettySize=auto;html=1;entryX=0;entryY=0.5;entryDx=0;entryDy=0;fillColor=#e1d5e7;strokeColor=#9673a6;" edge="1" parent="1" source="mqDDfRBbFSN-000igJr9-47" target="mqDDfRBbFSN-000igJr9-50">
          <mxGeometry relative="1" as="geometry" />
        </mxCell>
        <mxCell id="mqDDfRBbFSN-000igJr9-58" value="special-character" style="edgeLabel;html=1;align=center;verticalAlign=middle;resizable=0;points=[];" connectable="0" vertex="1" parent="mqDDfRBbFSN-000igJr9-57">
          <mxGeometry x="-0.025" y="-4" relative="1" as="geometry">
            <mxPoint y="-4" as="offset" />
          </mxGeometry>
        </mxCell>
        <mxCell id="mqDDfRBbFSN-000igJr9-47" value="q&lt;sub&gt;13&lt;/sub&gt;" style="ellipse;whiteSpace=wrap;html=1;aspect=fixed;fillColor=#e1d5e7;strokeColor=#9673a6;" vertex="1" parent="1">
          <mxGeometry x="400" y="340" width="80" height="80" as="geometry" />
        </mxCell>
        <mxCell id="mqDDfRBbFSN-000igJr9-50" value="ID&lt;br&gt;&lt;br&gt;q&lt;sub&gt;14&lt;/sub&gt;" style="ellipse;whiteSpace=wrap;html=1;aspect=fixed;fillColor=#e1d5e7;strokeColor=#9673a6;" vertex="1" parent="1">
          <mxGeometry x="720" y="340" width="80" height="80" as="geometry" />
        </mxCell>
        <mxCell id="mqDDfRBbFSN-000igJr9-53" value="" style="curved=1;endArrow=classic;html=1;rounded=0;exitX=0;exitY=1;exitDx=0;exitDy=0;entryX=1;entryY=1;entryDx=0;entryDy=0;fillColor=#e1d5e7;strokeColor=#9673a6;" edge="1" parent="1" source="mqDDfRBbFSN-000igJr9-47" target="mqDDfRBbFSN-000igJr9-47">
          <mxGeometry width="50" height="50" relative="1" as="geometry">
            <mxPoint x="310" y="510" as="sourcePoint" />
            <mxPoint x="360" y="460" as="targetPoint" />
            <Array as="points">
              <mxPoint x="390" y="460" />
              <mxPoint x="440" y="490" />
              <mxPoint x="510" y="460" />
            </Array>
          </mxGeometry>
        </mxCell>
        <mxCell id="mqDDfRBbFSN-000igJr9-54" value="word , underline , number" style="edgeLabel;html=1;align=center;verticalAlign=middle;resizable=0;points=[];" connectable="0" vertex="1" parent="mqDDfRBbFSN-000igJr9-53">
          <mxGeometry x="0.0743" y="6" relative="1" as="geometry">
            <mxPoint as="offset" />
          </mxGeometry>
        </mxCell>
        <mxCell id="mqDDfRBbFSN-000igJr9-59" value="" style="endArrow=classic;html=1;rounded=0;exitX=0.5;exitY=1;exitDx=0;exitDy=0;entryX=0.5;entryY=0;entryDx=0;entryDy=0;fillColor=#dae8fc;strokeColor=#6c8ebf;" edge="1" parent="1" source="mqDDfRBbFSN-000igJr9-1" target="mqDDfRBbFSN-000igJr9-47">
          <mxGeometry width="50" height="50" relative="1" as="geometry">
            <mxPoint x="360" y="110" as="sourcePoint" />
            <mxPoint x="440" y="280" as="targetPoint" />
          </mxGeometry>
        </mxCell>
        <mxCell id="mqDDfRBbFSN-000igJr9-60" value="[a-r) , (r-z] , [A-Z]&amp;nbsp;&lt;br&gt;underline , numbers" style="edgeLabel;html=1;align=center;verticalAlign=middle;resizable=0;points=[];" connectable="0" vertex="1" parent="mqDDfRBbFSN-000igJr9-59">
          <mxGeometry x="0.4067" relative="1" as="geometry">
            <mxPoint x="-62" y="-160" as="offset" />
          </mxGeometry>
        </mxCell>
        <mxCell id="mqDDfRBbFSN-000igJr9-61" value="" style="endArrow=classic;html=1;rounded=0;exitX=0.5;exitY=1;exitDx=0;exitDy=0;entryX=0.5;entryY=0;entryDx=0;entryDy=0;fillColor=#dae8fc;strokeColor=#6c8ebf;" edge="1" parent="1" source="mqDDfRBbFSN-000igJr9-7" target="mqDDfRBbFSN-000igJr9-47">
          <mxGeometry width="50" height="50" relative="1" as="geometry">
            <mxPoint x="470" y="110" as="sourcePoint" />
            <mxPoint x="520" y="60" as="targetPoint" />
          </mxGeometry>
        </mxCell>
        <mxCell id="mqDDfRBbFSN-000igJr9-62" value="[a-e) , (e-z] , [A-Z]&amp;nbsp;&lt;br style=&quot;border-color: var(--border-color);&quot;&gt;underline , numbers" style="edgeLabel;html=1;align=center;verticalAlign=middle;resizable=0;points=[];" connectable="0" vertex="1" parent="mqDDfRBbFSN-000igJr9-61">
          <mxGeometry x="-0.6333" y="4" relative="1" as="geometry">
            <mxPoint y="-5" as="offset" />
          </mxGeometry>
        </mxCell>
        <mxCell id="mqDDfRBbFSN-000igJr9-74" value="[a-r) , (r-z] , [A-Z]&amp;nbsp;&lt;br style=&quot;border-color: var(--border-color);&quot;&gt;underline , numbers" style="edgeLabel;html=1;align=center;verticalAlign=middle;resizable=0;points=[];" connectable="0" vertex="1" parent="mqDDfRBbFSN-000igJr9-61">
          <mxGeometry x="0.4467" y="-3" relative="1" as="geometry">
            <mxPoint x="13" y="-7" as="offset" />
          </mxGeometry>
        </mxCell>
        <mxCell id="mqDDfRBbFSN-000igJr9-65" value="" style="endArrow=classic;html=1;rounded=0;exitX=0.5;exitY=1;exitDx=0;exitDy=0;entryX=0.5;entryY=0;entryDx=0;entryDy=0;fillColor=#dae8fc;strokeColor=#6c8ebf;" edge="1" parent="1" source="mqDDfRBbFSN-000igJr9-12" target="mqDDfRBbFSN-000igJr9-47">
          <mxGeometry width="50" height="50" relative="1" as="geometry">
            <mxPoint x="600" y="110" as="sourcePoint" />
            <mxPoint x="650" y="60" as="targetPoint" />
          </mxGeometry>
        </mxCell>
        <mxCell id="mqDDfRBbFSN-000igJr9-66" value="(a-z] , [A-Z]&amp;nbsp;&lt;br style=&quot;border-color: var(--border-color);&quot;&gt;underline , numbers" style="edgeLabel;html=1;align=center;verticalAlign=middle;resizable=0;points=[];" connectable="0" vertex="1" parent="mqDDfRBbFSN-000igJr9-65">
          <mxGeometry x="-0.6567" relative="1" as="geometry">
            <mxPoint x="6" y="-1" as="offset" />
          </mxGeometry>
        </mxCell>
        <mxCell id="mqDDfRBbFSN-000igJr9-67" value="" style="endArrow=classic;html=1;rounded=0;exitX=0.5;exitY=1;exitDx=0;exitDy=0;entryX=0.5;entryY=0;entryDx=0;entryDy=0;fillColor=#dae8fc;strokeColor=#6c8ebf;" edge="1" parent="1" source="mqDDfRBbFSN-000igJr9-15" target="mqDDfRBbFSN-000igJr9-47">
          <mxGeometry width="50" height="50" relative="1" as="geometry">
            <mxPoint x="710" y="100" as="sourcePoint" />
            <mxPoint x="760" y="50" as="targetPoint" />
          </mxGeometry>
        </mxCell>
        <mxCell id="mqDDfRBbFSN-000igJr9-68" value="[a-k) , (k-z] , [A-Z]&amp;nbsp;&lt;br style=&quot;border-color: var(--border-color);&quot;&gt;underline , numbers" style="edgeLabel;html=1;align=center;verticalAlign=middle;resizable=0;points=[];" connectable="0" vertex="1" parent="mqDDfRBbFSN-000igJr9-67">
          <mxGeometry x="-0.7016" y="4" relative="1" as="geometry">
            <mxPoint y="3" as="offset" />
          </mxGeometry>
        </mxCell>
        <mxCell id="mqDDfRBbFSN-000igJr9-69" value="" style="endArrow=classic;html=1;rounded=0;exitX=0.5;exitY=1;exitDx=0;exitDy=0;entryX=0.5;entryY=0;entryDx=0;entryDy=0;fillColor=#dae8fc;strokeColor=#6c8ebf;" edge="1" parent="1" source="mqDDfRBbFSN-000igJr9-18" target="mqDDfRBbFSN-000igJr9-47">
          <mxGeometry width="50" height="50" relative="1" as="geometry">
            <mxPoint x="840" y="110" as="sourcePoint" />
            <mxPoint x="890" y="60" as="targetPoint" />
          </mxGeometry>
        </mxCell>
        <mxCell id="mqDDfRBbFSN-000igJr9-70" value="words&amp;nbsp;&lt;br style=&quot;border-color: var(--border-color);&quot;&gt;underline , numbers" style="edgeLabel;html=1;align=center;verticalAlign=middle;resizable=0;points=[];" connectable="0" vertex="1" parent="mqDDfRBbFSN-000igJr9-69">
          <mxGeometry x="-0.6962" y="-2" relative="1" as="geometry">
            <mxPoint x="5" y="6" as="offset" />
          </mxGeometry>
        </mxCell>
        <mxCell id="mqDDfRBbFSN-000igJr9-71" value="" style="endArrow=classic;html=1;rounded=0;exitX=0.5;exitY=1;exitDx=0;exitDy=0;entryX=0.5;entryY=0;entryDx=0;entryDy=0;fillColor=#f8cecc;strokeColor=#b85450;" edge="1" parent="1" source="mqDDfRBbFSN-000igJr9-25" target="mqDDfRBbFSN-000igJr9-47">
          <mxGeometry width="50" height="50" relative="1" as="geometry">
            <mxPoint x="310" y="280" as="sourcePoint" />
            <mxPoint x="360" y="230" as="targetPoint" />
          </mxGeometry>
        </mxCell>
        <mxCell id="mqDDfRBbFSN-000igJr9-72" value="[a-t) , (t-z] , [A-Z]&amp;nbsp;&lt;br style=&quot;border-color: var(--border-color);&quot;&gt;underline , numbers" style="edgeLabel;html=1;align=center;verticalAlign=middle;resizable=0;points=[];" connectable="0" vertex="1" parent="mqDDfRBbFSN-000igJr9-71">
          <mxGeometry x="-0.5059" y="-2" relative="1" as="geometry">
            <mxPoint y="14" as="offset" />
          </mxGeometry>
        </mxCell>
        <mxCell id="mqDDfRBbFSN-000igJr9-75" value="" style="endArrow=classic;html=1;rounded=0;exitX=0.5;exitY=1;exitDx=0;exitDy=0;fillColor=#f8cecc;strokeColor=#b85450;" edge="1" parent="1" source="mqDDfRBbFSN-000igJr9-32">
          <mxGeometry width="50" height="50" relative="1" as="geometry">
            <mxPoint x="570" y="310" as="sourcePoint" />
            <mxPoint x="440" y="340" as="targetPoint" />
          </mxGeometry>
        </mxCell>
        <mxCell id="mqDDfRBbFSN-000igJr9-76" value="[a-u) , (u-z] , [A-Z]&amp;nbsp;&lt;br style=&quot;border-color: var(--border-color);&quot;&gt;underline , numbers" style="edgeLabel;html=1;align=center;verticalAlign=middle;resizable=0;points=[];" connectable="0" vertex="1" parent="mqDDfRBbFSN-000igJr9-75">
          <mxGeometry x="-0.3682" y="1" relative="1" as="geometry">
            <mxPoint x="17" y="-25" as="offset" />
          </mxGeometry>
        </mxCell>
        <mxCell id="mqDDfRBbFSN-000igJr9-77" value="" style="endArrow=classic;html=1;rounded=0;exitX=0.5;exitY=1;exitDx=0;exitDy=0;fillColor=#f8cecc;strokeColor=#b85450;" edge="1" parent="1" source="mqDDfRBbFSN-000igJr9-35">
          <mxGeometry width="50" height="50" relative="1" as="geometry">
            <mxPoint x="700" y="310" as="sourcePoint" />
            <mxPoint x="440" y="340" as="targetPoint" />
          </mxGeometry>
        </mxCell>
        <mxCell id="mqDDfRBbFSN-000igJr9-78" value="[a-c) , (c-z] , [A-Z]&amp;nbsp;&lt;br style=&quot;border-color: var(--border-color);&quot;&gt;underline , numbers" style="edgeLabel;html=1;align=center;verticalAlign=middle;resizable=0;points=[];" connectable="0" vertex="1" parent="mqDDfRBbFSN-000igJr9-77">
          <mxGeometry x="-0.3435" y="4" relative="1" as="geometry">
            <mxPoint y="11" as="offset" />
          </mxGeometry>
        </mxCell>
        <mxCell id="mqDDfRBbFSN-000igJr9-79" value="" style="endArrow=classic;html=1;rounded=0;exitX=0.5;exitY=1;exitDx=0;exitDy=0;entryX=0.5;entryY=0;entryDx=0;entryDy=0;fillColor=#f8cecc;strokeColor=#b85450;" edge="1" parent="1" source="mqDDfRBbFSN-000igJr9-38" target="mqDDfRBbFSN-000igJr9-47">
          <mxGeometry width="50" height="50" relative="1" as="geometry">
            <mxPoint x="760" y="290" as="sourcePoint" />
            <mxPoint x="810" y="240" as="targetPoint" />
            <Array as="points">
              <mxPoint x="690" y="300" />
            </Array>
          </mxGeometry>
        </mxCell>
        <mxCell id="mqDDfRBbFSN-000igJr9-80" value="[a-t) , (t-z] , [A-Z]&amp;nbsp;&lt;br style=&quot;border-color: var(--border-color);&quot;&gt;underline , numbers" style="edgeLabel;html=1;align=center;verticalAlign=middle;resizable=0;points=[];" connectable="0" vertex="1" parent="mqDDfRBbFSN-000igJr9-79">
          <mxGeometry x="-0.4851" y="-2" relative="1" as="geometry">
            <mxPoint y="-8" as="offset" />
          </mxGeometry>
        </mxCell>
        <mxCell id="mqDDfRBbFSN-000igJr9-81" value="" style="endArrow=classic;html=1;rounded=0;exitX=0.5;exitY=1;exitDx=0;exitDy=0;entryX=0.5;entryY=0;entryDx=0;entryDy=0;fillColor=#f8cecc;strokeColor=#b85450;" edge="1" parent="1" source="mqDDfRBbFSN-000igJr9-39" target="mqDDfRBbFSN-000igJr9-47">
          <mxGeometry width="50" height="50" relative="1" as="geometry">
            <mxPoint x="950" y="310" as="sourcePoint" />
            <mxPoint x="1000" y="260" as="targetPoint" />
            <Array as="points">
              <mxPoint x="830" y="310" />
            </Array>
          </mxGeometry>
        </mxCell>
        <mxCell id="mqDDfRBbFSN-000igJr9-82" value="words,&amp;nbsp;&lt;br style=&quot;border-color: var(--border-color);&quot;&gt;underline , numbers" style="edgeLabel;html=1;align=center;verticalAlign=middle;resizable=0;points=[];" connectable="0" vertex="1" parent="mqDDfRBbFSN-000igJr9-81">
          <mxGeometry x="-0.6364" y="3" relative="1" as="geometry">
            <mxPoint as="offset" />
          </mxGeometry>
        </mxCell>
        <mxCell id="mqDDfRBbFSN-000igJr9-85" value="q&lt;sub&gt;15&lt;/sub&gt;" style="ellipse;whiteSpace=wrap;html=1;aspect=fixed;fillColor=#d5e8d4;strokeColor=#82b366;" vertex="1" parent="1">
          <mxGeometry x="320" y="580" width="80" height="80" as="geometry" />
        </mxCell>
        <mxCell id="mqDDfRBbFSN-000igJr9-86" value="" style="endArrow=classic;html=1;rounded=0;exitX=0.5;exitY=1;exitDx=0;exitDy=0;entryX=0;entryY=0.5;entryDx=0;entryDy=0;fillColor=#d5e8d4;strokeColor=#82b366;" edge="1" parent="1" source="EbS9nWY_aXkNQyXlSpU5-1" target="mqDDfRBbFSN-000igJr9-85">
          <mxGeometry width="50" height="50" relative="1" as="geometry">
            <mxPoint x="200" y="580" as="sourcePoint" />
            <mxPoint x="250" y="530" as="targetPoint" />
            <Array as="points">
              <mxPoint x="190" y="620" />
            </Array>
          </mxGeometry>
        </mxCell>
        <mxCell id="mqDDfRBbFSN-000igJr9-87" value="numbers" style="edgeLabel;html=1;align=center;verticalAlign=middle;resizable=0;points=[];" connectable="0" vertex="1" parent="mqDDfRBbFSN-000igJr9-86">
          <mxGeometry x="0.5964" y="-4" relative="1" as="geometry">
            <mxPoint y="-4" as="offset" />
          </mxGeometry>
        </mxCell>
        <mxCell id="mqDDfRBbFSN-000igJr9-89" value="" style="curved=1;endArrow=classic;html=1;rounded=0;exitX=0;exitY=1;exitDx=0;exitDy=0;entryX=1;entryY=1;entryDx=0;entryDy=0;fillColor=#d5e8d4;strokeColor=#82b366;" edge="1" parent="1" source="mqDDfRBbFSN-000igJr9-85" target="mqDDfRBbFSN-000igJr9-85">
          <mxGeometry width="50" height="50" relative="1" as="geometry">
            <mxPoint x="280" y="700" as="sourcePoint" />
            <mxPoint x="380" y="700" as="targetPoint" />
            <Array as="points">
              <mxPoint x="280" y="720" />
              <mxPoint x="360" y="760" />
              <mxPoint x="440" y="720" />
            </Array>
          </mxGeometry>
        </mxCell>
        <mxCell id="mqDDfRBbFSN-000igJr9-90" value="Number" style="edgeLabel;html=1;align=center;verticalAlign=middle;resizable=0;points=[];" connectable="0" vertex="1" parent="mqDDfRBbFSN-000igJr9-89">
          <mxGeometry x="0.0327" y="9" relative="1" as="geometry">
            <mxPoint as="offset" />
          </mxGeometry>
        </mxCell>
        <mxCell id="mqDDfRBbFSN-000igJr9-91" value="" style="endArrow=classic;html=1;rounded=0;exitX=1;exitY=0.5;exitDx=0;exitDy=0;entryX=0;entryY=0.5;entryDx=0;entryDy=0;fillColor=#d5e8d4;strokeColor=#82b366;" edge="1" parent="1" source="mqDDfRBbFSN-000igJr9-85" target="mqDDfRBbFSN-000igJr9-99">
          <mxGeometry width="50" height="50" relative="1" as="geometry">
            <mxPoint x="460" y="660" as="sourcePoint" />
            <mxPoint x="520" y="620" as="targetPoint" />
          </mxGeometry>
        </mxCell>
        <mxCell id="mqDDfRBbFSN-000igJr9-93" value="&lt;font style=&quot;font-size: 20px;&quot;&gt;.&lt;/font&gt;" style="edgeLabel;html=1;align=center;verticalAlign=middle;resizable=0;points=[];" connectable="0" vertex="1" parent="mqDDfRBbFSN-000igJr9-91">
          <mxGeometry y="-5" relative="1" as="geometry">
            <mxPoint as="offset" />
          </mxGeometry>
        </mxCell>
        <mxCell id="mqDDfRBbFSN-000igJr9-99" value="q&lt;sub&gt;16&lt;/sub&gt;" style="ellipse;whiteSpace=wrap;html=1;aspect=fixed;fillColor=#d5e8d4;strokeColor=#82b366;" vertex="1" parent="1">
          <mxGeometry x="525" y="580" width="80" height="80" as="geometry" />
        </mxCell>
        <mxCell id="mqDDfRBbFSN-000igJr9-102" value="" style="curved=1;endArrow=classic;html=1;rounded=0;exitX=0;exitY=1;exitDx=0;exitDy=0;entryX=1;entryY=1;entryDx=0;entryDy=0;fillColor=#d5e8d4;strokeColor=#82b366;" edge="1" parent="1">
          <mxGeometry width="50" height="50" relative="1" as="geometry">
            <mxPoint x="537" y="650" as="sourcePoint" />
            <mxPoint x="593" y="650" as="targetPoint" />
            <Array as="points">
              <mxPoint x="485" y="722" />
              <mxPoint x="565" y="762" />
              <mxPoint x="645" y="722" />
            </Array>
          </mxGeometry>
        </mxCell>
        <mxCell id="mqDDfRBbFSN-000igJr9-103" value="Number" style="edgeLabel;html=1;align=center;verticalAlign=middle;resizable=0;points=[];" connectable="0" vertex="1" parent="mqDDfRBbFSN-000igJr9-102">
          <mxGeometry x="0.0327" y="9" relative="1" as="geometry">
            <mxPoint as="offset" />
          </mxGeometry>
        </mxCell>
        <mxCell id="mqDDfRBbFSN-000igJr9-104" value="Number&lt;br&gt;&lt;br&gt;q&lt;sub&gt;17&lt;/sub&gt;" style="ellipse;whiteSpace=wrap;html=1;aspect=fixed;fillColor=#d5e8d4;strokeColor=#82b366;" vertex="1" parent="1">
          <mxGeometry x="715" y="540" width="80" height="80" as="geometry" />
        </mxCell>
        <mxCell id="mqDDfRBbFSN-000igJr9-106" value="" style="endArrow=classic;html=1;rounded=0;exitX=1;exitY=0.5;exitDx=0;exitDy=0;entryX=0;entryY=0.5;entryDx=0;entryDy=0;fillColor=#d5e8d4;strokeColor=#82b366;" edge="1" parent="1" source="mqDDfRBbFSN-000igJr9-99" target="mqDDfRBbFSN-000igJr9-104">
          <mxGeometry width="50" height="50" relative="1" as="geometry">
            <mxPoint x="660" y="630" as="sourcePoint" />
            <mxPoint x="710" y="580" as="targetPoint" />
          </mxGeometry>
        </mxCell>
        <mxCell id="mqDDfRBbFSN-000igJr9-110" value="special-character" style="edgeLabel;html=1;align=center;verticalAlign=middle;resizable=0;points=[];" connectable="0" vertex="1" parent="mqDDfRBbFSN-000igJr9-106">
          <mxGeometry x="-0.0058" y="-1" relative="1" as="geometry">
            <mxPoint as="offset" />
          </mxGeometry>
        </mxCell>
        <mxCell id="mqDDfRBbFSN-000igJr9-108" value="" style="endArrow=classic;html=1;rounded=0;exitX=0.5;exitY=0;exitDx=0;exitDy=0;entryX=0;entryY=0.5;entryDx=0;entryDy=0;fillColor=#d5e8d4;strokeColor=#82b366;" edge="1" parent="1" source="mqDDfRBbFSN-000igJr9-85" target="mqDDfRBbFSN-000igJr9-104">
          <mxGeometry width="50" height="50" relative="1" as="geometry">
            <mxPoint x="470" y="550" as="sourcePoint" />
            <mxPoint x="520" y="500" as="targetPoint" />
            <Array as="points">
              <mxPoint x="650" y="530" />
            </Array>
          </mxGeometry>
        </mxCell>
        <mxCell id="mqDDfRBbFSN-000igJr9-109" value="special-character" style="edgeLabel;html=1;align=center;verticalAlign=middle;resizable=0;points=[];" connectable="0" vertex="1" parent="mqDDfRBbFSN-000igJr9-108">
          <mxGeometry x="-0.176" y="-1" relative="1" as="geometry">
            <mxPoint as="offset" />
          </mxGeometry>
        </mxCell>
        <mxCell id="mqDDfRBbFSN-000igJr9-113" value="operator&lt;br&gt;&lt;br&gt;q&lt;sub&gt;18&lt;/sub&gt;" style="ellipse;whiteSpace=wrap;html=1;aspect=fixed;fillColor=#ffe6cc;strokeColor=#d79b00;" vertex="1" parent="1">
          <mxGeometry x="280" y="800" width="80" height="80" as="geometry" />
        </mxCell>
        <mxCell id="mqDDfRBbFSN-000igJr9-114" value="" style="endArrow=classic;html=1;rounded=0;entryX=0;entryY=0.5;entryDx=0;entryDy=0;fillColor=#ffe6cc;strokeColor=#d79b00;exitX=0.5;exitY=1;exitDx=0;exitDy=0;" edge="1" parent="1" source="EbS9nWY_aXkNQyXlSpU5-1" target="mqDDfRBbFSN-000igJr9-113">
          <mxGeometry width="50" height="50" relative="1" as="geometry">
            <mxPoint x="120" y="430" as="sourcePoint" />
            <mxPoint x="160" y="620" as="targetPoint" />
            <Array as="points">
              <mxPoint x="190" y="840" />
            </Array>
          </mxGeometry>
        </mxCell>
        <mxCell id="mqDDfRBbFSN-000igJr9-115" value="+ , =" style="edgeLabel;html=1;align=center;verticalAlign=middle;resizable=0;points=[];" connectable="0" vertex="1" parent="mqDDfRBbFSN-000igJr9-114">
          <mxGeometry x="0.3297" y="3" relative="1" as="geometry">
            <mxPoint as="offset" />
          </mxGeometry>
        </mxCell>
        <mxCell id="mqDDfRBbFSN-000igJr9-118" value="puntuators&lt;br&gt;&lt;br&gt;q&lt;sub&gt;19&lt;/sub&gt;" style="ellipse;whiteSpace=wrap;html=1;aspect=fixed;fillColor=#b0e3e6;strokeColor=#0e8088;" vertex="1" parent="1">
          <mxGeometry x="280" y="960" width="80" height="80" as="geometry" />
        </mxCell>
        <mxCell id="mqDDfRBbFSN-000igJr9-119" value="" style="endArrow=classic;html=1;rounded=0;exitX=0.5;exitY=1;exitDx=0;exitDy=0;entryX=0;entryY=0.5;entryDx=0;entryDy=0;fillColor=#b0e3e6;strokeColor=#0e8088;" edge="1" parent="1" source="EbS9nWY_aXkNQyXlSpU5-1" target="mqDDfRBbFSN-000igJr9-118">
          <mxGeometry width="50" height="50" relative="1" as="geometry">
            <mxPoint x="40" y="560" as="sourcePoint" />
            <mxPoint x="90" y="510" as="targetPoint" />
            <Array as="points">
              <mxPoint x="160" y="1000" />
            </Array>
          </mxGeometry>
        </mxCell>
        <mxCell id="mqDDfRBbFSN-000igJr9-120" value="( , )" style="edgeLabel;html=1;align=center;verticalAlign=middle;resizable=0;points=[];" connectable="0" vertex="1" parent="mqDDfRBbFSN-000igJr9-119">
          <mxGeometry x="0.4091" relative="1" as="geometry">
            <mxPoint as="offset" />
          </mxGeometry>
        </mxCell>
        <mxCell id="mqDDfRBbFSN-000igJr9-122" value="DOM&lt;br&gt;&lt;br&gt;q&lt;sub&gt;20&lt;/sub&gt;" style="ellipse;whiteSpace=wrap;html=1;aspect=fixed;fillColor=#e6d0de;gradientColor=#d5739d;strokeColor=#996185;" vertex="1" parent="1">
          <mxGeometry x="795" y="830" width="80" height="80" as="geometry" />
        </mxCell>
        <mxCell id="mqDDfRBbFSN-000igJr9-123" value="" style="curved=1;endArrow=classic;html=1;rounded=0;exitX=0;exitY=0.5;exitDx=0;exitDy=0;fillColor=#b1ddf0;strokeColor=#10739e;" edge="1" parent="1" source="EbS9nWY_aXkNQyXlSpU5-1" target="EbS9nWY_aXkNQyXlSpU5-1">
          <mxGeometry width="50" height="50" relative="1" as="geometry">
            <mxPoint x="40" y="320" as="sourcePoint" />
            <mxPoint x="90" y="270" as="targetPoint" />
            <Array as="points">
              <mxPoint x="30" y="330" />
              <mxPoint x="50" y="290" />
              <mxPoint x="100" y="260" />
            </Array>
          </mxGeometry>
        </mxCell>
        <mxCell id="mqDDfRBbFSN-000igJr9-124" value="special-characters" style="edgeLabel;html=1;align=center;verticalAlign=middle;resizable=0;points=[];" connectable="0" vertex="1" parent="mqDDfRBbFSN-000igJr9-123">
          <mxGeometry x="-0.0249" y="-4" relative="1" as="geometry">
            <mxPoint as="offset" />
          </mxGeometry>
        </mxCell>
        <mxCell id="mqDDfRBbFSN-000igJr9-125" value="" style="endArrow=classic;html=1;rounded=0;entryX=0;entryY=0;entryDx=0;entryDy=0;exitX=0.963;exitY=0.688;exitDx=0;exitDy=0;exitPerimeter=0;fillColor=#d5e8d4;strokeColor=#82b366;" edge="1" parent="1" source="mqDDfRBbFSN-000igJr9-85" target="mqDDfRBbFSN-000igJr9-122">
          <mxGeometry width="50" height="50" relative="1" as="geometry">
            <mxPoint x="750" y="900" as="sourcePoint" />
            <mxPoint x="800" y="850" as="targetPoint" />
            <Array as="points">
              <mxPoint x="580" y="810" />
            </Array>
          </mxGeometry>
        </mxCell>
        <mxCell id="mqDDfRBbFSN-000igJr9-126" value="words , operators &lt;br&gt;, punctuators , underline&amp;nbsp;" style="edgeLabel;html=1;align=center;verticalAlign=middle;resizable=0;points=[];" connectable="0" vertex="1" parent="mqDDfRBbFSN-000igJr9-125">
          <mxGeometry x="0.2732" y="-2" relative="1" as="geometry">
            <mxPoint as="offset" />
          </mxGeometry>
        </mxCell>
        <mxCell id="mqDDfRBbFSN-000igJr9-127" value="" style="endArrow=classic;html=1;rounded=0;exitX=0.963;exitY=0.763;exitDx=0;exitDy=0;exitPerimeter=0;entryX=0;entryY=0;entryDx=0;entryDy=0;fillColor=#d5e8d4;strokeColor=#82b366;" edge="1" parent="1" source="mqDDfRBbFSN-000igJr9-99" target="mqDDfRBbFSN-000igJr9-122">
          <mxGeometry width="50" height="50" relative="1" as="geometry">
            <mxPoint x="680" y="750" as="sourcePoint" />
            <mxPoint x="730" y="700" as="targetPoint" />
          </mxGeometry>
        </mxCell>
        <mxCell id="mqDDfRBbFSN-000igJr9-128" value="words , operators&lt;br style=&quot;border-color: var(--border-color);&quot;&gt;, punctuators , underline&amp;nbsp;" style="edgeLabel;html=1;align=center;verticalAlign=middle;resizable=0;points=[];" connectable="0" vertex="1" parent="mqDDfRBbFSN-000igJr9-127">
          <mxGeometry x="0.0507" y="2" relative="1" as="geometry">
            <mxPoint as="offset" />
          </mxGeometry>
        </mxCell>
        <mxCell id="mqDDfRBbFSN-000igJr9-129" value="" style="endArrow=classic;html=1;rounded=0;exitX=0.975;exitY=0.775;exitDx=0;exitDy=0;exitPerimeter=0;entryX=0.5;entryY=0;entryDx=0;entryDy=0;fillColor=#e1d5e7;strokeColor=#9673a6;" edge="1" parent="1" source="mqDDfRBbFSN-000igJr9-47" target="mqDDfRBbFSN-000igJr9-122">
          <mxGeometry width="50" height="50" relative="1" as="geometry">
            <mxPoint x="570" y="490" as="sourcePoint" />
            <mxPoint x="620" y="440" as="targetPoint" />
            <Array as="points">
              <mxPoint x="830" y="480" />
            </Array>
          </mxGeometry>
        </mxCell>
        <mxCell id="mqDDfRBbFSN-000igJr9-130" value="Operators , punctuators" style="edgeLabel;html=1;align=center;verticalAlign=middle;resizable=0;points=[];" connectable="0" vertex="1" parent="mqDDfRBbFSN-000igJr9-129">
          <mxGeometry x="0.5946" y="-2" relative="1" as="geometry">
            <mxPoint as="offset" />
          </mxGeometry>
        </mxCell>
        <mxCell id="mqDDfRBbFSN-000igJr9-131" value="DOM&lt;br&gt;&lt;br&gt;q&lt;sub&gt;20&lt;/sub&gt;" style="ellipse;whiteSpace=wrap;html=1;aspect=fixed;fillColor=#e6d0de;gradientColor=#d5739d;strokeColor=#996185;" vertex="1" parent="1">
          <mxGeometry x="760" y="-270" width="80" height="80" as="geometry" />
        </mxCell>
        <mxCell id="mqDDfRBbFSN-000igJr9-132" value="" style="endArrow=classic;html=1;rounded=0;entryX=0.5;entryY=1;entryDx=0;entryDy=0;exitX=0.5;exitY=0;exitDx=0;exitDy=0;fillColor=#dae8fc;strokeColor=#6c8ebf;" edge="1" parent="1" source="mqDDfRBbFSN-000igJr9-1" target="mqDDfRBbFSN-000igJr9-131">
          <mxGeometry width="50" height="50" relative="1" as="geometry">
            <mxPoint x="720" y="-130" as="sourcePoint" />
            <mxPoint x="770" y="-180" as="targetPoint" />
            <Array as="points">
              <mxPoint x="360" y="-120" />
              <mxPoint x="800" y="-120" />
            </Array>
          </mxGeometry>
        </mxCell>
        <mxCell id="mqDDfRBbFSN-000igJr9-138" value="Operators , punctuators" style="edgeLabel;html=1;align=center;verticalAlign=middle;resizable=0;points=[];" connectable="0" vertex="1" parent="mqDDfRBbFSN-000igJr9-132">
          <mxGeometry x="0.8632" y="1" relative="1" as="geometry">
            <mxPoint as="offset" />
          </mxGeometry>
        </mxCell>
        <mxCell id="mqDDfRBbFSN-000igJr9-133" value="" style="endArrow=none;html=1;rounded=0;exitX=0.5;exitY=0;exitDx=0;exitDy=0;fillColor=#f8cecc;strokeColor=#b85450;" edge="1" parent="1" source="mqDDfRBbFSN-000igJr9-29">
          <mxGeometry width="50" height="50" relative="1" as="geometry">
            <mxPoint x="500" y="130" as="sourcePoint" />
            <mxPoint x="450" y="50" as="targetPoint" />
          </mxGeometry>
        </mxCell>
        <mxCell id="mqDDfRBbFSN-000igJr9-134" value="" style="endArrow=none;html=1;rounded=0;fillColor=#dae8fc;strokeColor=#6c8ebf;" edge="1" parent="1">
          <mxGeometry width="50" height="50" relative="1" as="geometry">
            <mxPoint x="440" y="-40" as="sourcePoint" />
            <mxPoint x="440" y="-120" as="targetPoint" />
          </mxGeometry>
        </mxCell>
        <mxCell id="mqDDfRBbFSN-000igJr9-135" value="" style="endArrow=none;html=1;rounded=0;exitX=0.5;exitY=0;exitDx=0;exitDy=0;fillColor=#dae8fc;strokeColor=#6c8ebf;" edge="1" parent="1" source="mqDDfRBbFSN-000igJr9-12">
          <mxGeometry width="50" height="50" relative="1" as="geometry">
            <mxPoint x="580" y="-40" as="sourcePoint" />
            <mxPoint x="560" y="-120" as="targetPoint" />
          </mxGeometry>
        </mxCell>
        <mxCell id="mqDDfRBbFSN-000igJr9-136" value="" style="endArrow=none;html=1;rounded=0;fillColor=#dae8fc;strokeColor=#6c8ebf;" edge="1" parent="1">
          <mxGeometry width="50" height="50" relative="1" as="geometry">
            <mxPoint x="680" y="-40" as="sourcePoint" />
            <mxPoint x="680" y="-120" as="targetPoint" />
          </mxGeometry>
        </mxCell>
        <mxCell id="mqDDfRBbFSN-000igJr9-137" value="" style="endArrow=none;html=1;rounded=0;fillColor=#dae8fc;strokeColor=#6c8ebf;" edge="1" parent="1">
          <mxGeometry width="50" height="50" relative="1" as="geometry">
            <mxPoint x="800" y="-40" as="sourcePoint" />
            <mxPoint x="800" y="-120" as="targetPoint" />
          </mxGeometry>
        </mxCell>
        <mxCell id="mqDDfRBbFSN-000igJr9-139" value="" style="endArrow=classic;html=1;rounded=0;entryX=1;entryY=1;entryDx=0;entryDy=0;exitX=0.5;exitY=0;exitDx=0;exitDy=0;fillColor=#f8cecc;strokeColor=#b85450;" edge="1" parent="1" source="mqDDfRBbFSN-000igJr9-39" target="mqDDfRBbFSN-000igJr9-131">
          <mxGeometry width="50" height="50" relative="1" as="geometry">
            <mxPoint x="860" y="-50" as="sourcePoint" />
            <mxPoint x="910" y="-100" as="targetPoint" />
            <Array as="points">
              <mxPoint x="920" y="-80" />
            </Array>
          </mxGeometry>
        </mxCell>
        <mxCell id="mqDDfRBbFSN-000igJr9-144" value="Operators , punctuators" style="edgeLabel;html=1;align=center;verticalAlign=middle;resizable=0;points=[];" connectable="0" vertex="1" parent="mqDDfRBbFSN-000igJr9-139">
          <mxGeometry x="0.0499" y="-1" relative="1" as="geometry">
            <mxPoint as="offset" />
          </mxGeometry>
        </mxCell>
        <mxCell id="mqDDfRBbFSN-000igJr9-140" value="" style="endArrow=none;html=1;rounded=0;exitX=0.5;exitY=0;exitDx=0;exitDy=0;fillColor=#f8cecc;strokeColor=#b85450;" edge="1" parent="1" source="mqDDfRBbFSN-000igJr9-25">
          <mxGeometry width="50" height="50" relative="1" as="geometry">
            <mxPoint x="250" y="130" as="sourcePoint" />
            <mxPoint x="920" y="50" as="targetPoint" />
            <Array as="points">
              <mxPoint x="350" y="50" />
            </Array>
          </mxGeometry>
        </mxCell>
        <mxCell id="mqDDfRBbFSN-000igJr9-141" value="" style="endArrow=none;html=1;rounded=0;fillColor=#f8cecc;strokeColor=#b85450;" edge="1" parent="1">
          <mxGeometry width="50" height="50" relative="1" as="geometry">
            <mxPoint x="560" y="120" as="sourcePoint" />
            <mxPoint x="560" y="50" as="targetPoint" />
          </mxGeometry>
        </mxCell>
        <mxCell id="mqDDfRBbFSN-000igJr9-142" value="" style="endArrow=none;html=1;rounded=0;fillColor=#f8cecc;strokeColor=#b85450;" edge="1" parent="1">
          <mxGeometry width="50" height="50" relative="1" as="geometry">
            <mxPoint x="680" y="120" as="sourcePoint" />
            <mxPoint x="680" y="50" as="targetPoint" />
          </mxGeometry>
        </mxCell>
        <mxCell id="mqDDfRBbFSN-000igJr9-143" value="" style="endArrow=none;html=1;rounded=0;fillColor=#f8cecc;strokeColor=#b85450;" edge="1" parent="1">
          <mxGeometry width="50" height="50" relative="1" as="geometry">
            <mxPoint x="800" y="120" as="sourcePoint" />
            <mxPoint x="800" y="50" as="targetPoint" />
          </mxGeometry>
        </mxCell>
        <mxCell id="mqDDfRBbFSN-000igJr9-145" value="" style="endArrow=classic;html=1;rounded=0;exitX=1;exitY=1;exitDx=0;exitDy=0;entryX=0.5;entryY=0;entryDx=0;entryDy=0;fillColor=#dae8fc;strokeColor=#6c8ebf;" edge="1" parent="1" source="mqDDfRBbFSN-000igJr9-1" target="mqDDfRBbFSN-000igJr9-50">
          <mxGeometry width="50" height="50" relative="1" as="geometry">
            <mxPoint x="380" y="60" as="sourcePoint" />
            <mxPoint x="430" y="10" as="targetPoint" />
            <Array as="points">
              <mxPoint x="760" y="300" />
            </Array>
          </mxGeometry>
        </mxCell>
        <mxCell id="mqDDfRBbFSN-000igJr9-155" value="special-character" style="edgeLabel;html=1;align=center;verticalAlign=middle;resizable=0;points=[];" connectable="0" vertex="1" parent="mqDDfRBbFSN-000igJr9-145">
          <mxGeometry x="0.8875" y="-4" relative="1" as="geometry">
            <mxPoint as="offset" />
          </mxGeometry>
        </mxCell>
        <mxCell id="mqDDfRBbFSN-000igJr9-146" value="" style="endArrow=none;html=1;rounded=0;exitX=1;exitY=1;exitDx=0;exitDy=0;fillColor=#dae8fc;strokeColor=#6c8ebf;" edge="1" parent="1" source="mqDDfRBbFSN-000igJr9-7">
          <mxGeometry width="50" height="50" relative="1" as="geometry">
            <mxPoint x="480" y="70" as="sourcePoint" />
            <mxPoint x="760" y="300" as="targetPoint" />
          </mxGeometry>
        </mxCell>
        <mxCell id="mqDDfRBbFSN-000igJr9-147" value="" style="endArrow=none;html=1;rounded=0;exitX=1;exitY=1;exitDx=0;exitDy=0;fillColor=#dae8fc;strokeColor=#6c8ebf;" edge="1" parent="1" source="mqDDfRBbFSN-000igJr9-12">
          <mxGeometry width="50" height="50" relative="1" as="geometry">
            <mxPoint x="950" y="410" as="sourcePoint" />
            <mxPoint x="760" y="300" as="targetPoint" />
          </mxGeometry>
        </mxCell>
        <mxCell id="mqDDfRBbFSN-000igJr9-148" value="" style="endArrow=none;html=1;rounded=0;exitX=1;exitY=1;exitDx=0;exitDy=0;fillColor=#dae8fc;strokeColor=#6c8ebf;" edge="1" parent="1" source="mqDDfRBbFSN-000igJr9-15">
          <mxGeometry width="50" height="50" relative="1" as="geometry">
            <mxPoint x="900" y="370" as="sourcePoint" />
            <mxPoint x="760" y="300" as="targetPoint" />
          </mxGeometry>
        </mxCell>
        <mxCell id="mqDDfRBbFSN-000igJr9-149" value="" style="endArrow=classic;html=1;rounded=0;exitX=1;exitY=1;exitDx=0;exitDy=0;entryX=0.863;entryY=0.05;entryDx=0;entryDy=0;entryPerimeter=0;fillColor=#f8cecc;strokeColor=#b85450;" edge="1" parent="1" source="mqDDfRBbFSN-000igJr9-25" target="mqDDfRBbFSN-000igJr9-50">
          <mxGeometry width="50" height="50" relative="1" as="geometry">
            <mxPoint x="310" y="340" as="sourcePoint" />
            <mxPoint x="360" y="290" as="targetPoint" />
            <Array as="points">
              <mxPoint x="790" y="300" />
            </Array>
          </mxGeometry>
        </mxCell>
        <mxCell id="mqDDfRBbFSN-000igJr9-154" value="special-character" style="edgeLabel;html=1;align=center;verticalAlign=middle;resizable=0;points=[];" connectable="0" vertex="1" parent="mqDDfRBbFSN-000igJr9-149">
          <mxGeometry x="0.9201" y="-2" relative="1" as="geometry">
            <mxPoint as="offset" />
          </mxGeometry>
        </mxCell>
        <mxCell id="mqDDfRBbFSN-000igJr9-150" value="" style="endArrow=none;html=1;rounded=0;exitX=1;exitY=1;exitDx=0;exitDy=0;fillColor=#f8cecc;strokeColor=#b85450;" edge="1" parent="1" source="mqDDfRBbFSN-000igJr9-29">
          <mxGeometry width="50" height="50" relative="1" as="geometry">
            <mxPoint x="510" y="330" as="sourcePoint" />
            <mxPoint x="790" y="300" as="targetPoint" />
          </mxGeometry>
        </mxCell>
        <mxCell id="mqDDfRBbFSN-000igJr9-151" value="" style="endArrow=none;html=1;rounded=0;entryX=1;entryY=1;entryDx=0;entryDy=0;fillColor=#f8cecc;strokeColor=#b85450;" edge="1" parent="1" target="mqDDfRBbFSN-000igJr9-32">
          <mxGeometry width="50" height="50" relative="1" as="geometry">
            <mxPoint x="790" y="300" as="sourcePoint" />
            <mxPoint x="880" y="330" as="targetPoint" />
          </mxGeometry>
        </mxCell>
        <mxCell id="mqDDfRBbFSN-000igJr9-152" value="" style="endArrow=none;html=1;rounded=0;entryX=1;entryY=1;entryDx=0;entryDy=0;fillColor=#f8cecc;strokeColor=#b85450;" edge="1" parent="1" target="mqDDfRBbFSN-000igJr9-35">
          <mxGeometry width="50" height="50" relative="1" as="geometry">
            <mxPoint x="790" y="300" as="sourcePoint" />
            <mxPoint x="930" y="320" as="targetPoint" />
          </mxGeometry>
        </mxCell>
        <mxCell id="mqDDfRBbFSN-000igJr9-153" value="" style="endArrow=none;html=1;rounded=0;entryX=1;entryY=1;entryDx=0;entryDy=0;fillColor=#f8cecc;strokeColor=#b85450;" edge="1" parent="1" target="mqDDfRBbFSN-000igJr9-38">
          <mxGeometry width="50" height="50" relative="1" as="geometry">
            <mxPoint x="790" y="300" as="sourcePoint" />
            <mxPoint x="930" y="360" as="targetPoint" />
          </mxGeometry>
        </mxCell>
      </root>
    </mxGraphModel>
  </diagram>
</mxfile>
